{"title":"The Mechanic (2011) (In Hindi) 1cd Rip Mpg * FIRST ON NET*","uid":6185744,"size":733784794,"categoryP":"video","categoryS":"movies","magnet":"?xt=urn:btih:4f43e9adaaec071c230683e9a5940f520fe2c2ce&amp;dn=The+Mechanic+%282011%29+%28In+Hindi%29+1cd+Rip+Mpg+%2A+FIRST+ON+NET%2A&amp;tr=udp%3A%2F%2Ftracker.openbittorrent.com%3A80&amp;tr=udp%3A%2F%2Fopen.demonii.com%3A1337&amp;tr=udp%3A%2F%2Ftracker.coppersurfer.tk%3A6969&amp;tr=udp%3A%2F%2Fexodus.desync.com%3A6969","seeders":0,"leechers":0,"uploader":"arihantkatariya","files":2,"time":1298104707,"description":"EAM DAYN PROUDLY PRESENTS\n\nWITH INSPIRATION OF\n\n-=![POSTERBHAI]!=-\n\nThe Mechanic (2011) (In Hindi) 1cd Rip Mpg * FIRST ON NET*\n\nMedia Info:\n\nCode:\nFormat : MPEG-PS File size : 700 MiB Duration : 1h 24mn Overall bit rate : 1 160 Kbps Video ID : 224 (0xE0) Format : MPEG Video Format version : Version 1 Format settings, BVOP : No Format settings, Matrix : Default Duration : 1h 24mn Bit rate mode : Variable Bit rate : 1 009 Kbps Width : 384 pixels Height : 288 pixels Display aspect ratio : 4:3 Frame rate : 25.000 fps Color space : YUV Bit depth : 8 bits Scan type : Progressive Compression mode : Lossy Bits/(Pixel*Frame) : 0.365 Stream size : 609 MiB (87%) Audio ID : 192 (0xC0) Format : MPEG Audio Format version : Version 1 Format profile : Layer 3 Mode : Joint stereo Mode extension : MS Stereo Duration : 1h 24mn Bit rate mode : Constant Bit rate : 128 Kbps Channel(s) : 2 channels Sampling rate : 44.1 KHz Compression mode : Lossy Stream size : 77.2 MiB (11%)\n\nScreens:\n\n\nWILL ADD IN SOME TIME FOR SURE...!!!\n\n100% GENUINE MOVIE","torrent":{"xt":"urn:btih:4f43e9adaaec071c230683e9a5940f520fe2c2ce","amp;dn":"The+Mechanic+%282011%29+%28In+Hindi%29+1cd+Rip+Mpg+%2A+FIRST+ON+NET%2A","amp;tr":["udp%3A%2F%2Ftracker.openbittorrent.com%3A80","udp%3A%2F%2Fopen.demonii.com%3A1337","udp%3A%2F%2Ftracker.coppersurfer.tk%3A6969","udp%3A%2F%2Fexodus.desync.com%3A6969"],"infoHash":"4f43e9adaaec071c230683e9a5940f520fe2c2ce","infoHashBuffer":{"type":"Buffer","data":[79,67,233,173,170,236,7,28,35,6,131,233,165,148,15,82,15,226,194,206]},"announce":[],"urlList":[]}}